# xmcd CD database file
#
# Track frame offsets:
#	150
#	18956
#	35477
#	62268
#	74808
#	108793
#	129531
#	141321
#	166916
#	184234
#	209852
#	224691
#	239726
#	263010
#	294358
#	305694
#	318845
#
# Disc length: 4396 seconds
#
# Revision: 0
# Processed by: cddbd v1.5.1PL2 Copyright (c) Steve Scherf et al.
# Submitted via: CDex 1.51
#
DISCID=0c112a11
DTITLE=Various Artist - Meetin'Jazz FEB,2006
DYEAR=2006
DGENRE=Jazz
TTITLE0=You've gotta have freedom - Build An Ark
TTITLE1=Devil May care ? Jackson Sloan
TTITLE2=Madrugada - JAZZTRONIK
TTITLE3=Mary et jeff - CORTEX
TTITLE4=Mambucaba - Mine Nock
TTITLE5=We free king - ROLAND KIRK
TTITLE6=My baby - KEN NORDINE and THE FRED KATZ FROUP
TTITLE7=Wiggle waggle - HERBIE HANCOCK
TTITLE8=Only so much oil in the ground - Tower of Power
TTITLE9=We gettin' down - Weldon Irvine
TTITLE10=Friends and buddies - Milton Wright
TTITLE11=Soul of nigger chary -main title- - DON COSTA
TTITLE12=The bottle - Gil Scott Heron
TTITLE13=Just the tow of us - Grover Washington Jr.
TTITLE14=A felicidade - LES BAXTER ORCHESTRA and CHORUS
TTITLE15=O rei triste - ZIMBO TRIO
TTITLE16=Spoo pee doo - Archie Shepp
EXTD=YEAR: 2006.02
EXTT0=
EXTT1=
EXTT2=
EXTT3=
EXTT4=
EXTT5=
EXTT6=
EXTT7=
EXTT8=
EXTT9=
EXTT10=
EXTT11=
EXTT12=
EXTT13=
EXTT14=
EXTT15=
EXTT16=
PLAYORDER=
